# xmcd
#
# Track frame offsets:
#	225
#	13170
#	24679
#	40314
#	57374
#	68725
#	82751
#	95521
#	110659
#	126594
#	138052
#	150021
#	159521
#	169860
#	176993
#	186804
#	205074
#	222896
#	236548
#	255311
#	269977
#	283468
#	298298
#	311707
#	325353
#	336714
#
# Disc length: 4703 seconds
#
# Revision: 1
# Processed by: cddbd v1.5.2PL0 Copyright (c) Steve Scherf et al.
# Submitted via: EasyCDDAExtractor 12.0.0.1
#
DISCID=95125c1a
DTITLE=Dave Cox - Greatest Misses!
DYEAR=2008
DGENRE=Country
TTITLE0=Alcohol of Fame
TTITLE1=Too Many Saturday Nights
TTITLE2=My Neighbor's Ass
TTITLE3=When Yer Sober
TTITLE4=A Stroke of Good Luck
TTITLE5=Act Like You Love Me
TTITLE6=Blah Blah Blah
TTITLE7=Last Night Ain't Over Yet
TTITLE8=When Love Turns to Hate
TTITLE9=I'd Hate Me Too
TTITLE10=Another Drink of Courage
TTITLE11=The Opposite of Me
TTITLE12=Treat Me Like a Dog
TTITLE13=Please Don't Shoot Me
TTITLE14=I Think I'm Gonna Puke
TTITLE15=Airport Bar
TTITLE16=I Don't Cry Anymore
TTITLE17=It's Hard to Sing the Blues
TTITLE18=Christmas Alone
TTITLE19=In My Pocket
TTITLE20=Welcome to the Zoo
TTITLE21=Highly Doubtful
TTITLE22=Folk Singer
TTITLE23=The Color of Your Soul
TTITLE24=He Is Everywhere
TTITLE25=Fun-eral
EXTD=
EXTT0=
EXTT1=
EXTT2=
EXTT3=
EXTT4=
EXTT5=
EXTT6=
EXTT7=
EXTT8=
EXTT9=
EXTT10=
EXTT11=
EXTT12=
EXTT13=
EXTT14=
EXTT15=
EXTT16=
EXTT17=
EXTT18=
EXTT19=
EXTT20=
EXTT21=
EXTT22=
EXTT23=
EXTT24=
EXTT25=
PLAYORDER=
